<?xml version="1.0" standalone="no"?>
<!DOCTYPE svg PUBLIC "-//W3C//DTD SVG 20010904//EN"
 "http://www.w3.org/TR/2001/REC-SVG-20010904/DTD/svg10.dtd">
<svg version="1.0" xmlns="http://www.w3.org/2000/svg"
 width="180.000000pt" height="180.000000pt" viewBox="0 0 180.000000 180.000000"
 preserveAspectRatio="xMidYMid meet">

<g transform="translate(0.000000,180.000000) scale(0.100000,-0.100000)"
fill="#000000" stroke="none">
<path d="M0 900 l0 -900 900 0 900 0 0 900 0 900 -900 0 -900 0 0 -900z m1068
358 c7 -7 12 -20 12 -31 0 -18 -283 -640 -303 -664 -15 -20 -55 -15 -67 6 -6
12 -7 28 -1 43 20 52 293 634 303 645 13 16 40 17 56 1z m-514 -121 c11 -8 17
-23 14 -37 -2 -20 -31 -41 -155 -110 -84 -47 -153 -88 -153 -91 0 -3 69 -44
153 -90 118 -66 153 -90 155 -108 4 -26 -14 -51 -36 -51 -16 0 -452 240 -452
250 0 8 436 250 451 250 3 0 13 -6 23 -13z m933 -109 c122 -68 223 -125 223
-128 0 -6 -427 -244 -447 -248 -21 -5 -43 17 -43 44 0 27 13 36 192 135 65 35
118 66 118 69 0 3 -50 32 -112 65 -174 94 -198 111 -198 139 0 21 21 44 39 46
3 0 105 -55 228 -122z"/>
</g>
</svg>
